<svg width="80" height="72" viewBox="0 0 80 72" fill="none" xmlns="http://www.w3.org/2000/svg">
<path fill-rule="evenodd" clip-rule="evenodd" d="M10 0C4.47715 0 0 4.47715 0 10V44C0 49.5228 4.47715 54 10 54H19V71.5L32.4302 54H44C49.5228 54 54 49.5228 54 44V10C54 4.47715 49.5228 0 44 0H10ZM64.5198 19C61.681 20.9161 60.8562 22.416 61.0198 26C60.8562 29.584 61.681 31.0839 64.5198 33L79.0198 40V26V12L64.5198 19ZM24.5746 24.0406L22.7857 22.5939C23.3576 21.7316 23.595 20.6901 23.4533 19.6651C23.3116 18.6401 22.8006 17.7021 22.0162 17.0273C21.2317 16.3525 20.2279 15.9873 19.1933 16.0003C18.1586 16.0133 17.1643 16.4037 16.3971 17.098C15.6299 17.7923 15.1426 18.7428 15.0267 19.7711C14.9108 20.7993 15.1744 21.8345 15.7678 22.6821C16.3612 23.5298 17.2437 24.1316 18.2495 24.3746C19.2553 24.6176 20.3152 24.485 21.2302 24.0017L22.9102 25.4094L24.5746 24.0406ZM19.2468 22.485C18.8069 22.485 18.3768 22.3545 18.011 22.1101C17.6452 21.8657 17.3601 21.5183 17.1917 21.1118C17.0233 20.7053 16.9793 20.2581 17.0651 19.8266C17.1509 19.3951 17.3628 18.9987 17.6739 18.6876C17.985 18.3765 18.3814 18.1647 18.8129 18.0789C19.2444 17.993 19.6916 18.0371 20.0981 18.2054C20.5045 18.3738 20.852 18.6589 21.0964 19.0247C21.3408 19.3905 21.4713 19.8206 21.4713 20.2606C21.4692 20.8492 21.2339 21.413 20.817 21.8284C20.4001 22.2439 19.8354 22.4772 19.2468 22.4772V22.485ZM39.749 18.5106L38.0535 17.2272C37.7912 17.0229 37.4682 16.9119 37.1357 16.9119C36.8032 16.9119 36.4802 17.0229 36.2179 17.2272L21.2302 29.345C20.3152 28.8617 19.2553 28.7291 18.2495 28.9721C17.2437 29.215 16.3612 29.8169 15.7678 30.6645C15.1744 31.5122 14.9108 32.5474 15.0267 33.5756C15.1426 34.6038 15.6299 35.5544 16.3971 36.2487C17.1643 36.943 18.1586 37.3333 19.1933 37.3463C20.2279 37.3593 21.2317 36.9941 22.0162 36.3193C22.8006 35.6445 23.3116 34.7065 23.4533 33.6815C23.595 32.6566 23.3576 31.6151 22.7857 30.7528L25.819 28.3261L36.2179 36.7028C36.4802 36.9071 36.8032 37.0181 37.1357 37.0181C37.4682 37.0181 37.7912 36.9071 38.0535 36.7028L39.749 35.4272L29.739 26.965L39.749 18.5106ZM19.2468 35.3261C18.8069 35.3261 18.3768 35.1957 18.011 34.9512C17.6452 34.7068 17.3601 34.3594 17.1917 33.9529C17.0233 33.5465 16.9793 33.0992 17.0651 32.6677C17.1509 32.2362 17.3628 31.8398 17.6739 31.5287C17.985 31.2177 18.3813 31.0058 18.8129 30.92C19.2444 30.8341 19.6916 30.8782 20.0981 31.0466C20.5045 31.2149 20.8519 31.5 21.0964 31.8658C21.3408 32.2316 21.4713 32.6617 21.4713 33.1017C21.4692 33.691 21.2342 34.2556 20.8175 34.6723C20.4008 35.089 19.8361 35.3241 19.2468 35.3261Z" fill="url(#paint0_linear_53_5)"/>
<defs>
<linearGradient id="paint0_linear_53_5" x1="0" y1="0" x2="81.675" y2="3.60849" gradientUnits="userSpaceOnUse">
<stop stop-color="#007CE6"/>
<stop offset="1" stop-color="#0AE6FF"/>
</linearGradient>
</defs>
</svg>
