<svg width="241" height="80" viewBox="0 0 241 80" fill="none" xmlns="http://www.w3.org/2000/svg">
<path fill-rule="evenodd" clip-rule="evenodd" d="M10 8C4.47715 8 0 12.4772 0 18V52C0 57.5228 4.47715 62 10 62H19V79.5L32.4302 62H44C49.5228 62 54 57.5228 54 52V18C54 12.4772 49.5228 8 44 8H10ZM64.5198 27C61.681 28.9161 60.8562 30.416 61.0198 34C60.8562 37.584 61.681 39.0839 64.5198 41L79.0198 48V34V20L64.5198 27ZM24.5746 32.0406L22.7857 30.5939C23.3576 29.7316 23.595 28.6901 23.4533 27.6651C23.3116 26.6401 22.8006 25.7021 22.0162 25.0273C21.2317 24.3525 20.2279 23.9873 19.1933 24.0003C18.1586 24.0133 17.1643 24.4037 16.3971 25.098C15.6299 25.7923 15.1426 26.7428 15.0267 27.7711C14.9108 28.7993 15.1744 29.8345 15.7678 30.6821C16.3612 31.5298 17.2437 32.1316 18.2495 32.3746C19.2553 32.6176 20.3152 32.485 21.2302 32.0017L22.9102 33.4094L24.5746 32.0406ZM19.2468 30.485C18.8069 30.485 18.3768 30.3545 18.011 30.1101C17.6452 29.8657 17.3601 29.5183 17.1917 29.1118C17.0233 28.7053 16.9793 28.2581 17.0651 27.8266C17.1509 27.3951 17.3628 26.9987 17.6739 26.6876C17.985 26.3765 18.3814 26.1647 18.8129 26.0789C19.2444 25.993 19.6916 26.0371 20.0981 26.2054C20.5045 26.3738 20.852 26.6589 21.0964 27.0247C21.3408 27.3905 21.4713 27.8206 21.4713 28.2606C21.4692 28.8492 21.2339 29.413 20.817 29.8284C20.4001 30.2439 19.8354 30.4772 19.2468 30.4772V30.485ZM39.749 26.5106L38.0535 25.2272C37.7912 25.0229 37.4682 24.9119 37.1357 24.9119C36.8032 24.9119 36.4802 25.0229 36.2179 25.2272L21.2302 37.345C20.3152 36.8617 19.2553 36.7291 18.2495 36.9721C17.2437 37.215 16.3612 37.8169 15.7678 38.6645C15.1744 39.5122 14.9108 40.5474 15.0267 41.5756C15.1426 42.6038 15.6299 43.5544 16.3971 44.2487C17.1643 44.943 18.1586 45.3333 19.1933 45.3463C20.2279 45.3593 21.2317 44.9941 22.0162 44.3193C22.8006 43.6445 23.3116 42.7065 23.4533 41.6815C23.595 40.6566 23.3576 39.6151 22.7857 38.7528L25.819 36.3261L36.2179 44.7028C36.4802 44.9071 36.8032 45.0181 37.1357 45.0181C37.4682 45.0181 37.7912 44.9071 38.0535 44.7028L39.749 43.4272L29.739 34.965L39.749 26.5106ZM19.2468 43.3261C18.8069 43.3261 18.3768 43.1957 18.011 42.9512C17.6452 42.7068 17.3601 42.3594 17.1917 41.9529C17.0233 41.5465 16.9793 41.0992 17.0651 40.6677C17.1509 40.2362 17.3628 39.8398 17.6739 39.5287C17.985 39.2177 18.3813 39.0058 18.8129 38.92C19.2444 38.8341 19.6916 38.8782 20.0981 39.0466C20.5045 39.2149 20.852 39.5 21.0964 39.8658C21.3408 40.2316 21.4713 40.6617 21.4713 41.1017C21.4692 41.691 21.2342 42.2556 20.8175 42.6723C20.4008 43.089 19.8361 43.3241 19.2468 43.3261Z" fill="url(#paint0_linear_24_17)"/>
<path d="M113.849 33.8289C113.849 34.505 113.807 35.2094 113.723 35.9419H97.3677C97.4803 37.407 97.9452 38.5339 98.7623 39.3228C99.6075 40.0835 100.636 40.4638 101.847 40.4638C103.65 40.4638 104.904 39.7031 105.609 38.1817H113.3C112.906 39.7313 112.187 41.1259 111.145 42.3656C110.13 43.6052 108.849 44.5772 107.299 45.2816C105.749 45.9859 104.017 46.3381 102.101 46.3381C99.7906 46.3381 97.7339 45.845 95.9308 44.859C94.1277 43.8729 92.719 42.4642 91.7047 40.6329C90.6904 38.8016 90.1833 36.6603 90.1833 34.2092C90.1833 31.7581 90.6763 29.6169 91.6624 27.7856C92.6767 25.9543 94.0854 24.5456 95.8885 23.5595C97.6917 22.5734 99.7624 22.0803 102.101 22.0803C104.383 22.0803 106.411 22.5593 108.186 23.5172C109.961 24.4751 111.342 25.8416 112.328 27.6165C113.342 29.3915 113.849 31.4623 113.849 33.8289ZM106.454 31.9271C106.454 30.6875 106.031 29.7014 105.186 28.9689C104.341 28.2363 103.284 27.8701 102.016 27.8701C100.805 27.8701 99.7765 28.2223 98.9313 28.9266C98.1143 29.631 97.6071 30.6311 97.4099 31.9271H106.454ZM116.225 34.167C116.225 31.744 116.676 29.6169 117.577 27.7856C118.507 25.9543 119.761 24.5456 121.338 23.5595C122.916 22.5734 124.677 22.0803 126.621 22.0803C128.171 22.0803 129.579 22.4043 130.847 23.0523C132.143 23.7003 133.157 24.5737 133.89 25.6725V14.727H141.117V46H133.89V42.6191C133.214 43.7461 132.242 44.6477 130.974 45.3238C129.734 46 128.283 46.3381 126.621 46.3381C124.677 46.3381 122.916 45.845 121.338 44.859C119.761 43.8447 118.507 42.4219 117.577 40.5906C116.676 38.7311 116.225 36.5899 116.225 34.167ZM133.89 34.2092C133.89 32.4061 133.383 30.9833 132.369 29.9409C131.382 28.8984 130.171 28.3772 128.734 28.3772C127.297 28.3772 126.072 28.8984 125.057 29.9409C124.071 30.9551 123.578 32.3638 123.578 34.167C123.578 35.9701 124.071 37.407 125.057 38.4776C126.072 39.52 127.297 40.0412 128.734 40.0412C130.171 40.0412 131.382 39.52 132.369 38.4776C133.383 37.4351 133.89 36.0123 133.89 34.2092ZM170.433 22.4184L155.642 57.1991H147.866L153.275 45.197L143.682 22.4184H151.754L157.206 37.1675L162.615 22.4184H170.433ZM171.61 34.2092C171.61 31.7581 172.103 29.6169 173.089 27.7856C174.103 25.9543 175.498 24.5456 177.273 23.5595C179.076 22.5734 181.133 22.0803 183.443 22.0803C186.401 22.0803 188.866 22.8551 190.838 24.4047C192.839 25.9543 194.149 28.1377 194.769 30.9551H187.077C186.429 29.152 185.176 28.2504 183.316 28.2504C181.992 28.2504 180.935 28.7717 180.146 29.8141C179.358 30.8283 178.963 32.2934 178.963 34.2092C178.963 36.125 179.358 37.6042 180.146 38.6466C180.935 39.6609 181.992 40.168 183.316 40.168C185.176 40.168 186.429 39.2664 187.077 37.4633H194.769C194.149 40.2243 192.839 42.3937 190.838 43.9715C188.838 45.5492 186.373 46.3381 183.443 46.3381C181.133 46.3381 179.076 45.845 177.273 44.859C175.498 43.8729 174.103 42.4642 173.089 40.6329C172.103 38.8016 171.61 36.6603 171.61 34.2092ZM221.92 22.4184V46H214.693V42.7882C213.961 43.8306 212.961 44.6758 211.693 45.3238C210.453 45.9437 209.073 46.2536 207.551 46.2536C205.748 46.2536 204.156 45.8591 202.776 45.0703C201.395 44.2532 200.325 43.084 199.564 41.5626C198.803 40.0412 198.423 38.2522 198.423 36.1955V22.4184H205.607V35.2235C205.607 36.8012 206.016 38.0268 206.833 38.9002C207.65 39.7736 208.749 40.2103 210.129 40.2103C211.538 40.2103 212.651 39.7736 213.468 38.9002C214.285 38.0268 214.693 36.8012 214.693 35.2235V22.4184H221.92ZM240.254 39.8722V46H236.577C233.957 46 231.914 45.3661 230.449 44.0983C228.984 42.8023 228.252 40.7033 228.252 37.8014V28.4195H225.378V22.4184H228.252V16.671H235.478V22.4184H240.212V28.4195H235.478V37.8859C235.478 38.5903 235.648 39.0974 235.986 39.4073C236.324 39.7172 236.887 39.8722 237.676 39.8722H240.254Z" fill="#191E47"/>
<defs>
<linearGradient id="paint0_linear_24_17" x1="0" y1="8" x2="81.675" y2="11.6085" gradientUnits="userSpaceOnUse">
<stop stop-color="#007CE6"/>
<stop offset="1" stop-color="#0AE6FF"/>
</linearGradient>
</defs>
</svg>
